<?xml version="1.0" encoding="iso-8859-1"?>
<!-- Generator: Adobe Illustrator 19.0.0, SVG Export Plug-In . SVG Version: 6.00 Build 0)  -->
<svg version="1.1" id="Layer_1" xmlns="http://www.w3.org/2000/svg" xmlns:xlink="http://www.w3.org/1999/xlink" x="0px" y="0px"
	 viewBox="0 0 511.999 511.999" style="enable-background:new 0 0 511.999 511.999;" xml:space="preserve">
<circle style="fill:#88C5CC;" cx="255.999" cy="255.999" r="255.999"/>
<path style="fill:#99602E;" d="M380,404c0,4.4-3.6,8-8,8h-232c-4.4,0-8-3.6-8-8V108c0-4.4,3.6-8,8-8h232c4.4,0,8,3.6,8,8V404z"/>
<rect x="147.997" y="116.005" style="fill:#F5F5F5;" width="216.004" height="279.999"/>
<g>
	<path style="fill:#263740;" d="M280,92h-8c0-11.048-8.952-20-20-20c-11.044,0-20,8.952-20,20h-8c-4.4,0-8,3.6-8,8v24
		c0,4.4,3.6,8,8,8h56c4.4,0,8-3.6,8-8v-24C288,95.6,284.4,92,280,92z M252,100c-4.416,0-8-3.584-8-8c0-4.416,3.584-8,8-8
		s8,3.584,8,8C260,96.416,256.416,100,252,100z"/>
	<path style="fill:#263740;" d="M204,160v40h-40c0,22.084,17.908,40,40,40s40-17.916,40-40S226.092,160,204,160z"/>
</g>
<g>
	<path style="fill:#88C5CC;" d="M200,156c-22.092,0-40,17.916-40,40h40V156z"/>
	<rect x="268.004" y="164.004" style="fill:#88C5CC;" width="80.001" height="16"/>
</g>
<g>
	<rect x="268.004" y="188.003" style="fill:#263740;" width="80.001" height="8"/>
	<rect x="268.004" y="203.999" style="fill:#263740;" width="80.001" height="8"/>
	<rect x="268.004" y="220.006" style="fill:#263740;" width="80.001" height="8"/>
	<rect x="268.004" y="236.002" style="fill:#263740;" width="80.001" height="8"/>
</g>
<g>
	<rect x="164.004" y="288.002" style="fill:#B3B3B3;" width="4" height="99.999"/>
	<rect x="156.001" y="375.996" style="fill:#B3B3B3;" width="191.995" height="4"/>
</g>
<path style="fill:#E16B5A;" d="M348,372H172c0,0,132-16,176-84C348,312,348,372,348,372z"/>
<g>
</g>
<g>
</g>
<g>
</g>
<g>
</g>
<g>
</g>
<g>
</g>
<g>
</g>
<g>
</g>
<g>
</g>
<g>
</g>
<g>
</g>
<g>
</g>
<g>
</g>
<g>
</g>
<g>
</g>
</svg>
