<?xml version="1.0" encoding="iso-8859-1"?>
<!-- Generator: Adobe Illustrator 19.0.0, SVG Export Plug-In . SVG Version: 6.00 Build 0)  -->
<svg xmlns="http://www.w3.org/2000/svg" xmlns:xlink="http://www.w3.org/1999/xlink" version="1.1" id="Capa_1" x="0px" y="0px" viewBox="0 0 483.5 483.5" style="enable-background:new 0 0 483.5 483.5;" xml:space="preserve" width="512" height="512">
<g>
	<path style="fill:#B2AFAF;" d="M321.514,159.642L28.5,452.656c12.96,12.96,33.974,12.961,46.934,0l269.547-269.547L321.514,159.642   z"/>
	<polygon style="fill:#FF382E;" points="483.5,55.02 449.603,21.123 424.003,46.723 433.88,70.743 457.9,80.62  "/>
	<polygon style="fill:#DE2F1B;" points="457.9,80.62 424.003,46.723 398.403,72.323 408.28,96.343 432.3,106.22  "/>
	<polygon style="fill:#FF382E;" points="432.3,106.22 398.403,72.323 372.803,97.924 382.68,121.943 406.7,131.82  "/>
	<polygon style="fill:#DE2F1B;" points="406.7,131.821 372.803,97.924 347.203,123.524 357.08,147.543 381.1,157.421  "/>
	
		<rect x="326.848" y="131.955" transform="matrix(-0.7071 0.7071 -0.7071 -0.7071 705.5222 19.6107)" style="fill:#FF382E;" width="43.704" height="47.938"/>
	<path style="fill:#DE2F1B;" d="M308.477,146.605c2.929-2.929,7.677-2.929,10.607,0l38.935,38.935c2.929,2.929,2.929,7.678,0,10.607   c-2.929,2.929-7.677,2.929-10.607,0l-38.935-38.935C305.548,154.282,305.548,149.534,308.477,146.605z"/>
	<path style="fill:#655F5E;" d="M161.986,159.642L455,452.656c-12.96,12.96-33.974,12.961-46.934,0L138.519,183.109L161.986,159.642   z"/>
	<polygon style="fill:#19ABBF;" points="33.897,21.123 0,55.02 25.6,80.62 49.62,70.743 59.497,46.723  "/>
	<polygon style="fill:#0B7786;" points="59.497,46.723 25.6,80.62 51.2,106.22 75.22,96.343 85.097,72.323  "/>
	<polygon style="fill:#19ABBF;" points="85.097,72.323 51.2,106.22 76.8,131.82 100.82,121.943 110.697,97.924  "/>
	<polygon style="fill:#0B7786;" points="110.697,97.924 76.8,131.821 102.4,157.421 126.42,147.543 136.297,123.524  "/>
	
		<rect x="112.949" y="131.955" transform="matrix(0.7071 0.7071 -0.7071 0.7071 149.7369 -49.6493)" style="fill:#19ABBF;" width="43.704" height="47.938"/>
	<path style="fill:#0B7786;" d="M125.481,196.146c-2.929-2.929-2.929-7.677,0-10.607l38.935-38.935   c2.929-2.929,7.678-2.929,10.607,0c2.929,2.929,2.929,7.677,0,10.607l-38.935,38.935   C133.159,199.076,128.41,199.075,125.481,196.146z"/>
</g>















</svg>
