<?xml version="1.0" encoding="iso-8859-1"?>
<!-- Generator: Adobe Illustrator 19.0.0, SVG Export Plug-In . SVG Version: 6.00 Build 0)  -->
<svg version="1.1" id="Capa_1" xmlns="http://www.w3.org/2000/svg" xmlns:xlink="http://www.w3.org/1999/xlink" x="0px" y="0px"
	 viewBox="0 0 470.004 470.004" style="enable-background:new 0 0 470.004 470.004;" xml:space="preserve">
<g>
	<path style="fill:#655F5E;" d="M301.756,389.932c-0.001,4.141-3.358,7.497-7.5,7.497h-118.51c-4.141,0-7.498-3.356-7.5-7.497h-15
		v52.497h163.51v-52.497H301.756z M294.256,427.429h-118.51c-4.142,0-7.5-3.358-7.5-7.5s3.358-7.5,7.5-7.5h118.51
		c4.143,0,7.5,3.358,7.5,7.5S298.398,427.429,294.256,427.429z"/>
	<path style="fill:#D19884;" d="M168.246,389.929c0-4.142,3.358-7.5,7.5-7.5h118.51c4.143,0,7.5,3.358,7.5,7.5
		c0,0.003,15,0.003,15,0.003V257.429h-163.51v132.503C153.246,389.932,168.246,389.932,168.246,389.929z M169.123,276.405
		c1.947-3.656,6.492-5.041,10.145-3.095c34.897,18.583,76.567,18.582,111.465,0c3.657-1.947,8.199-0.561,10.146,3.095
		s0.562,8.198-3.095,10.145c-19.656,10.467-41.221,15.7-62.784,15.7c-21.563,0-43.126-5.233-62.782-15.7
		C168.562,284.603,167.176,280.061,169.123,276.405z"/>
	<path style="fill:#FFFFFF;" d="M331.756,322.442h15v-82.513c0-4.142,3.357-7.5,7.5-7.5s7.5,3.358,7.5,7.5v82.513h15v-82.513
		c0-4.142,3.357-7.5,7.5-7.5s7.5,3.358,7.5,7.5v82.513h15v-82.513c0-4.141,3.355-7.498,7.496-7.5v-15h-82.496V322.442z"/>
	<path style="fill:#FFFFFF;" d="M63.246,239.929v82.5h15v-82.5c0-4.142,3.358-7.5,7.5-7.5s7.5,3.358,7.5,7.5v82.5h15v-82.5
		c0-4.142,3.358-7.5,7.5-7.5s7.5,3.358,7.5,7.5v82.5h15v-105H55.742v15C59.888,232.429,63.246,235.787,63.246,239.929z"/>
	<rect x="153.246" y="217.429" style="fill:#FF382E;" width="163.51" height="25"/>
	<rect x="331.756" y="337.442" style="fill:#FF382E;" width="75" height="44.987"/>
	<rect x="331.756" y="397.429" style="fill:#FF382E;" width="123.246" height="45"/>
	<rect x="15.002" y="397.429" style="fill:#FF382E;" width="123.244" height="45"/>
	<path style="fill:#FF382E;" d="M138.246,337.429h-22.248c-0.084,0.003-0.167,0.013-0.252,0.013s-0.167-0.01-0.252-0.013H85.998
		c-0.084,0.003-0.167,0.013-0.252,0.013s-0.167-0.01-0.252-0.013H63.246v45h75V337.429z"/>
	<polygon style="fill:#3F3736;" points="419.256,202.429 370.506,137.429 99.496,137.429 50.746,202.429 	"/>
	<path style="fill:#3F3736;" d="M298.492,122.429l-50.758-42.171c-0.008-0.006-12.733-10.579-12.733-10.579l-12.727,10.574
		c-0.004,0.003-50.764,42.175-50.764,42.175H298.492z"/>
	<path style="fill:#655F5E;" d="M230.208,54.16c2.779-2.307,6.808-2.307,9.586,0l5.207,4.326V37.575c0-5.514-4.486-10-10-10
		c-5.514,0-10,4.486-10,10v20.911L230.208,54.16z"/>
	<path style="fill:#1C1918;" d="M462.502,382.429h-40.746v-142.5c0-4.142-3.357-7.5-7.5-7.5c-4.145,0.002-7.5,3.359-7.5,7.5v82.513
		h-15v-82.513c0-4.142-3.357-7.5-7.5-7.5s-7.5,3.358-7.5,7.5v82.513h-15v-82.513c0-4.142-3.357-7.5-7.5-7.5s-7.5,3.358-7.5,7.5
		v82.513h-15V217.429h102.497c15.812-0.007,29.994-10.034,35.313-24.956c1.391-3.901-0.645-8.192-4.546-9.583
		c-3.903-1.39-8.192,0.645-9.583,4.546c-2.792,7.834-9.642,13.421-17.645,14.709l-57.537-76.716c-1.416-1.889-3.64-3-6-3h-52.291
		l-61.964-51.481V37.575c0-13.785-11.215-25-25-25s-25,11.215-25,25v33.374l-61.964,51.481h-52.29c-2.361,0-4.583,1.111-6,3
		l-57.537,76.716c-8.001-1.288-14.85-6.873-17.643-14.704c-1.392-3.902-5.686-5.938-9.583-4.544
		c-3.901,1.392-5.936,5.682-4.544,9.583c5.323,14.923,19.512,24.949,35.308,24.949h102.5v105h-15v-82.5c0-4.142-3.358-7.5-7.5-7.5
		s-7.5,3.358-7.5,7.5v82.5h-15v-82.5c0-4.142-3.358-7.5-7.5-7.5s-7.5,3.358-7.5,7.5v82.5h-15v-82.5c0-4.142-3.358-7.5-7.5-7.5
		c-4.144,0.003-7.5,3.359-7.5,7.5v142.5H7.502c-4.142,0-7.5,3.358-7.5,7.5v60c0,4.142,3.358,7.5,7.5,7.5h455
		c4.143,0,7.5-3.358,7.5-7.5v-60C470.002,385.787,466.645,382.429,462.502,382.429z M15.002,397.429h123.244v45H15.002V397.429z
		 M63.246,337.429h22.248c0.084,0.003,0.167,0.013,0.252,0.013s0.167-0.01,0.252-0.013h29.497c0.084,0.003,0.167,0.013,0.252,0.013
		s0.167-0.01,0.252-0.013h22.248v45h-75V337.429z M235.001,27.575c5.514,0,10,4.486,10,10v20.911l-5.207-4.326
		c-2.778-2.307-6.807-2.307-9.586,0l-5.207,4.326V37.575C225.001,32.06,229.487,27.575,235.001,27.575z M222.27,80.257
		c0.004-0.003,12.731-10.577,12.731-10.577l12.725,10.572c0.008,0.006,50.766,42.177,50.766,42.177H171.51L222.27,80.257z
		 M370.506,137.429l48.75,65H50.746l48.75-65H370.506z M316.756,217.429v25h-163.51v-25H316.756z M406.756,337.442v44.987h-75
		v-44.987H406.756z M153.246,442.429v-185h163.51v185H153.246z M455.002,442.429H331.756v-45h123.246V442.429z"/>
	<path style="fill:#1C1918;" d="M294.256,382.429h-118.51c-4.142,0-7.5,3.358-7.5,7.5c0.002,4.144,3.359,7.5,7.5,7.5h118.51
		c4.142,0,7.498-3.356,7.5-7.497C301.756,385.787,298.398,382.429,294.256,382.429z"/>
	<path style="fill:#1C1918;" d="M294.256,412.429h-118.51c-4.142,0-7.5,3.358-7.5,7.5s3.358,7.5,7.5,7.5h118.51
		c4.143,0,7.5-3.358,7.5-7.5S298.398,412.429,294.256,412.429z"/>
	<path style="fill:#1C1918;" d="M172.218,286.55c19.656,10.466,41.219,15.7,62.782,15.7c21.563,0,43.127-5.233,62.784-15.7
		c3.656-1.947,5.041-6.489,3.095-10.145s-6.488-5.042-10.146-3.095c-34.898,18.583-76.568,18.583-111.465,0
		c-3.653-1.945-8.198-0.561-10.145,3.095C167.176,280.061,168.562,284.603,172.218,286.55z"/>
</g>
<g>
</g>
<g>
</g>
<g>
</g>
<g>
</g>
<g>
</g>
<g>
</g>
<g>
</g>
<g>
</g>
<g>
</g>
<g>
</g>
<g>
</g>
<g>
</g>
<g>
</g>
<g>
</g>
<g>
</g>
</svg>
